<svg width="143" height="214" viewBox="0 0 143 214" fill="none" xmlns="http://www.w3.org/2000/svg">
<path d="M12.7849 107.251L70.6723 140.634L129.27 107.251V173.392C129.27 176.419 127.665 179.219 125.053 180.748L75.3333 209.852C72.6738 211.409 69.3812 211.409 66.7217 209.852L17.0024 180.748C14.3902 179.219 12.7849 176.419 12.7849 173.392V107.251Z" fill="url(#paint0_linear_84_1542)"/>
<path fill-rule="evenodd" clip-rule="evenodd" d="M12.4299 106.637L70.6736 140.225L129.625 106.64V173.392C129.625 176.545 127.953 179.461 125.232 181.054L75.5128 210.158C72.7426 211.78 69.3127 211.78 66.5424 210.158L16.8232 181.054C14.1021 179.461 12.4299 176.545 12.4299 173.392V106.637ZM128.915 107.863L70.6714 141.044L13.1402 107.866V173.392C13.1402 176.293 14.6786 178.976 17.182 180.441L66.9013 209.545C69.4499 211.037 72.6054 211.037 75.154 209.545L124.873 180.441C127.377 178.976 128.915 176.293 128.915 173.392V107.863Z" fill="url(#paint1_linear_84_1542)"/>
<path d="M12.7849 162.653L66.7217 194.226C69.3812 195.783 72.6738 195.783 75.3333 194.226L129.27 162.653V165.494L76.7685 196.227C73.2226 198.302 68.8324 198.302 65.2864 196.227L12.7849 165.494V162.653Z" fill="black" fill-opacity="0.3"/>
<path d="M12.7849 164.784L66.0041 195.936C69.1068 197.753 72.9482 197.753 76.0509 195.936L129.27 164.784V165.494L76.0509 196.647C72.9482 198.463 69.1068 198.463 66.0041 196.647L12.7849 165.494V164.784Z" fill="white" fill-opacity="0.2"/>
<path d="M65.3455 140.635H76.7099V211.662H65.3455V140.635Z" fill="url(#paint2_linear_84_1542)"/>
<path d="M67.833 74.099C69.5898 73.0776 71.7584 73.0722 73.5203 74.0848L128.137 105.474C130.047 106.571 130.035 109.331 128.116 110.412L73.4772 141.186C71.7373 142.166 69.6107 142.16 67.8757 141.172L13.8777 110.406C11.9745 109.321 11.9626 106.582 13.8562 105.481L67.833 74.099Z" fill="url(#paint3_linear_84_1542)"/>
<path fill-rule="evenodd" clip-rule="evenodd" d="M67.6544 73.7919C69.521 72.7066 71.8251 72.7009 73.6972 73.7768L128.314 105.166C130.463 106.401 130.449 109.505 128.29 110.722L73.6514 141.495C71.8027 142.536 69.5433 142.531 67.6998 141.48L13.7018 110.714C11.5607 109.494 11.5473 106.412 13.6776 105.174L67.6544 73.7919ZM73.3433 74.3926C71.6915 73.4433 69.6584 73.4484 68.0114 74.4059L14.0346 105.788C12.3777 106.751 12.3881 109.148 14.0535 110.097L68.0515 140.863C69.678 141.79 71.6717 141.795 73.3028 140.876L127.941 110.103C129.621 109.157 129.631 106.742 127.96 105.781L73.3433 74.3926Z" fill="url(#paint4_linear_84_1542)"/>
<path d="M70.1079 87.6913C70.3137 87.572 70.4165 87.5123 70.526 87.4887C70.6229 87.4677 70.723 87.4673 70.8201 87.4874C70.9297 87.5101 71.0331 87.5689 71.2398 87.6865L105.129 106.957C105.706 107.285 105.995 107.449 106.09 107.663C106.173 107.85 106.171 108.063 106.086 108.248C105.988 108.461 105.696 108.621 105.114 108.941L71.2249 127.546C71.0233 127.657 70.9224 127.712 70.8158 127.734C70.7215 127.753 70.6243 127.752 70.5301 127.733C70.4237 127.71 70.3234 127.654 70.1227 127.542L36.8984 108.936C36.3285 108.617 36.0435 108.457 35.9471 108.246C35.8629 108.062 35.8614 107.851 35.9427 107.666C36.036 107.453 36.3185 107.289 36.8835 106.961L70.1079 87.6913Z" fill="black" fill-opacity="0.2"/>
<path fill-rule="evenodd" clip-rule="evenodd" d="M70.151 85.7529C70.4901 85.6796 70.8406 85.6781 71.1803 85.7485C71.5881 85.8329 71.9434 86.0409 72.0824 86.1222C72.0964 86.1304 72.1082 86.1373 72.1176 86.1427L106.052 105.439C106.3 105.58 106.58 105.739 106.805 105.896C107.034 106.055 107.464 106.38 107.713 106.944C108.003 107.597 107.997 108.343 107.698 108.992C107.44 109.552 107.005 109.87 106.775 110.026C106.547 110.179 106.264 110.335 106.015 110.472L72.0795 129.103C72.0703 129.108 72.0587 129.114 72.0451 129.122C71.9092 129.199 71.562 129.395 71.1657 129.474C70.8356 129.541 70.4953 129.539 70.1657 129.47C69.7701 129.387 69.4247 129.188 69.2894 129.11C69.2758 129.103 69.2643 129.096 69.2551 129.091L36.0309 110.485C36.0158 110.477 36.0006 110.468 35.9853 110.46C35.7413 110.323 35.4633 110.168 35.2397 110.014C35.0109 109.857 34.5854 109.538 34.3321 108.984C34.0376 108.34 34.0321 107.6 34.3168 106.952C34.5616 106.394 34.9823 106.069 35.2087 105.908C35.43 105.751 35.7056 105.592 35.9475 105.451C35.9627 105.443 35.9778 105.434 35.9927 105.425L69.2171 86.1551C69.2265 86.1496 69.2382 86.1426 69.2522 86.1343C69.3904 86.0518 69.7439 85.8408 70.151 85.7529ZM70.6813 89.4113L38.7447 107.935L70.6811 125.819L103.256 107.934L70.6813 89.4113Z" fill="url(#paint5_linear_84_1542)"/>
<path d="M22.7288 128.399C22.7288 127.274 23.5238 126.818 24.5044 127.38C25.4851 127.943 26.2801 129.311 26.2801 130.436L26.2801 159.973C26.2801 161.098 25.4851 161.554 24.5044 160.991C23.5238 160.429 22.7288 159.061 22.7288 157.936L22.7288 128.399Z" fill="#1AD9FF"/>
<path fill-rule="evenodd" clip-rule="evenodd" d="M24.5625 160.991C25.3488 161.428 26.0195 161.251 26.2801 160.623C26.0382 160.62 25.7665 160.542 25.4794 160.383C24.4666 159.82 23.6456 158.452 23.6456 157.327L23.6456 127.79C23.6456 127.538 23.6867 127.32 23.7618 127.139C23.1503 127.13 22.7288 127.593 22.7288 128.399L22.7288 157.936C22.7288 159.061 23.5498 160.429 24.5625 160.991Z" fill="black" fill-opacity="0.5"/>
<path d="M31.9624 133.371C31.9624 132.246 32.7574 131.79 33.7381 132.352C34.7188 132.915 35.5138 134.283 35.5138 135.408L35.5138 164.945C35.5138 166.07 34.7188 166.526 33.7381 165.963C32.7574 165.401 31.9624 164.033 31.9624 162.908L31.9624 133.371Z" fill="#1AD9FF"/>
<path fill-rule="evenodd" clip-rule="evenodd" d="M33.7962 165.963C34.5824 166.4 35.2531 166.223 35.5138 165.595C35.2718 165.592 35.0001 165.514 34.713 165.355C33.7003 164.792 32.8793 163.424 32.8793 162.299L32.8793 132.762C32.8793 132.51 32.9203 132.292 32.9954 132.111C32.3839 132.102 31.9624 132.564 31.9624 133.371L31.9624 162.908C31.9624 164.033 32.7834 165.401 33.7962 165.963Z" fill="black" fill-opacity="0.5"/>
<path d="M41.1958 139.053C41.1958 137.928 41.9908 137.472 42.9715 138.034C43.9522 138.597 44.7472 139.965 44.7472 141.09L44.7472 170.627C44.7472 171.752 43.9522 172.208 42.9715 171.645C41.9908 171.083 41.1958 169.715 41.1958 168.59L41.1958 139.053Z" fill="#1AD9FF"/>
<path fill-rule="evenodd" clip-rule="evenodd" d="M43.0296 171.645C43.8158 172.082 44.4865 171.905 44.7472 171.277C44.5052 171.274 44.2335 171.196 43.9464 171.037C42.9337 170.474 42.1127 169.106 42.1127 167.981L42.1127 138.444C42.1127 138.192 42.1537 137.974 42.2288 137.793C41.6173 137.784 41.1958 138.247 41.1958 139.053L41.1958 168.59C41.1958 169.715 42.0168 171.083 43.0296 171.645Z" fill="black" fill-opacity="0.5"/>
<path d="M50.4294 144.025C50.4294 142.9 51.2244 142.444 52.2051 143.006C53.1858 143.569 53.9808 144.937 53.9808 146.062L53.9808 175.599C53.9808 176.724 53.1858 177.18 52.2051 176.617C51.2244 176.055 50.4294 174.687 50.4294 173.562L50.4294 144.025Z" fill="#1AD9FF"/>
<path fill-rule="evenodd" clip-rule="evenodd" d="M52.2632 176.617C53.0495 177.054 53.7202 176.877 53.9808 176.249C53.7389 176.246 53.4672 176.168 53.1801 176.009C52.1673 175.446 51.3463 174.078 51.3463 172.953L51.3463 143.416C51.3463 143.164 51.3874 142.946 51.4625 142.765C50.8509 142.756 50.4294 143.218 50.4294 144.025L50.4294 173.562C50.4294 174.687 51.2504 176.055 52.2632 176.617Z" fill="black" fill-opacity="0.5"/>
<g filter="url(#filter0_i_84_1542)">
<path d="M107.962 184.165C107.962 184.981 107.409 185.973 106.726 186.381C106.044 186.789 105.491 186.459 105.491 185.642C105.491 184.826 106.044 183.834 106.726 183.426C107.409 183.018 107.962 183.349 107.962 184.165Z" fill="#FFC34D"/>
<path d="M104.256 186.381C104.256 187.198 103.703 188.19 103.021 188.598C102.339 189.006 101.786 188.675 101.786 187.859C101.786 187.043 102.339 186.051 103.021 185.643C103.703 185.234 104.256 185.565 104.256 186.381Z" fill="#1AD9FF"/>
<path d="M100.55 188.598C100.55 189.414 99.9971 190.407 99.3149 190.815C98.6326 191.223 98.0796 190.892 98.0796 190.076C98.0796 189.26 98.6326 188.267 99.3149 187.859C99.9971 187.451 100.55 187.782 100.55 188.598Z" fill="#1AD9FF"/>
<path d="M96.8446 190.815C96.8446 191.631 96.2915 192.623 95.6093 193.032C94.9271 193.44 94.374 193.109 94.374 192.293C94.374 191.476 94.9271 190.484 95.6093 190.076C96.2915 189.668 96.8446 189.999 96.8446 190.815Z" fill="#1AD9FF"/>
<path d="M93.1385 193.032C93.1385 193.848 92.5854 194.84 91.9032 195.248C91.221 195.656 90.668 195.326 90.668 194.509C90.668 193.693 91.221 192.701 91.9032 192.293C92.5854 191.885 93.1385 192.215 93.1385 193.032Z" fill="#1AD9FF"/>
<path d="M89.4329 195.248C89.4329 196.065 88.8799 197.057 88.1977 197.465C87.5154 197.873 86.9624 197.542 86.9624 196.726C86.9624 195.91 87.5154 194.918 88.1977 194.51C88.8799 194.101 89.4329 194.432 89.4329 195.248Z" fill="#1AD9FF"/>
<path d="M85.7271 197.465C85.7271 198.281 85.1741 199.274 84.4919 199.682C83.8096 200.09 83.2566 199.759 83.2566 198.943C83.2566 198.127 83.8096 197.134 84.4919 196.726C85.1741 196.318 85.7271 196.649 85.7271 197.465Z" fill="#1AD9FF"/>
<path d="M82.0213 199.682C82.0213 200.498 81.4683 201.49 80.786 201.899C80.1038 202.307 79.5508 201.976 79.5508 201.16C79.5508 200.343 80.1038 199.351 80.786 198.943C81.4683 198.535 82.0213 198.866 82.0213 199.682Z" fill="#1AD9FF"/>
</g>
<g filter="url(#filter1_i_84_1542)">
<path d="M120.747 147.737C120.747 146.757 121.435 145.564 122.285 145.074C123.134 144.583 123.822 144.981 123.822 145.962V147.382C123.822 148.363 123.134 149.555 122.285 150.046C121.435 150.536 120.747 150.139 120.747 149.158L120.747 147.737Z" fill="#1AD9FF"/>
</g>
<g filter="url(#filter2_i_84_1542)">
<path d="M120.747 140.279C120.747 139.299 121.435 138.106 122.285 137.616C123.134 137.125 123.822 137.523 123.822 138.504V139.924C123.822 140.905 123.134 142.097 122.285 142.588C121.435 143.078 120.747 142.681 120.747 141.7L120.747 140.279Z" fill="#1AD9FF"/>
</g>
<g filter="url(#filter3_i_84_1542)">
<path d="M120.747 132.822C120.747 131.841 121.435 130.648 122.285 130.158C123.134 129.668 123.822 130.065 123.822 131.046V132.466C123.822 133.447 123.134 134.64 122.285 135.13C121.435 135.62 120.747 135.223 120.747 134.242L120.747 132.822Z" fill="#1AD9FF"/>
</g>
<g filter="url(#filter4_i_84_1542)">
<path d="M120.747 125.364C120.747 124.383 121.435 123.19 122.285 122.7C123.134 122.21 123.822 122.607 123.822 123.588V125.008C123.822 125.989 123.134 127.182 122.285 127.672C121.435 128.162 120.747 127.765 120.747 126.784L120.747 125.364Z" fill="#1AD9FF"/>
</g>
<g filter="url(#filter5_i_84_1542)">
<path d="M91.1182 159.903L106.947 150.396V152.59L91.1182 162.097V159.903Z" fill="#1AD9FF"/>
</g>
<g filter="url(#filter6_i_84_1542)">
<path d="M86.8564 162.463L89.2917 161V163.195L86.8564 164.657V162.463Z" fill="#1AD9FF"/>
</g>
<g filter="url(#filter7_i_84_1542)">
<path d="M79.5508 166.851L85.03 163.56V165.754L79.5508 169.046L79.5508 166.851Z" fill="#1AD9FF"/>
</g>
<g filter="url(#filter8_i_84_1542)">
<path d="M96.5974 152.224L113.644 141.985V144.179L96.5974 154.418V152.224Z" fill="#1AD9FF"/>
</g>
<g filter="url(#filter9_i_84_1542)">
<path d="M92.3357 154.784L94.7709 153.321V155.515L92.3357 156.978V154.784Z" fill="#1AD9FF"/>
</g>
<g filter="url(#filter10_i_84_1542)">
<path d="M88.074 157.344L90.5092 155.881V158.075L88.074 159.538V157.344Z" fill="#1AD9FF"/>
</g>
<g filter="url(#filter11_i_84_1542)">
<path d="M83.8125 159.903L86.2477 158.441V160.635L83.8125 162.098V159.903Z" fill="#FFC34D"/>
</g>
<g filter="url(#filter12_i_84_1542)">
<path d="M79.5508 162.463L81.986 161V163.195L79.5508 164.657L79.5508 162.463Z" fill="#1AD9FF"/>
</g>
<g filter="url(#filter13_i_84_1542)">
<path d="M95.3796 148.567L109.382 140.156V142.351L95.3796 150.761V148.567Z" fill="#1AD9FF"/>
</g>
<g filter="url(#filter14_i_84_1542)">
<path d="M79.5508 158.075L93.5533 149.664V151.858L79.5508 160.269L79.5508 158.075Z" fill="#1AD9FF"/>
</g>
<g filter="url(#filter15_i_84_1542)">
<path d="M106.947 137.231L113.644 133.208V135.403L106.947 139.425V137.231Z" fill="#1AD9FF"/>
</g>
<g filter="url(#filter16_i_84_1542)">
<path d="M88.6829 148.201L105.121 138.328V140.522L88.6829 150.396V148.201Z" fill="#FFC34D"/>
</g>
<g filter="url(#filter17_i_84_1542)">
<path d="M79.5508 153.687L86.8565 149.299V151.493L79.5508 155.881L79.5508 153.687Z" fill="#FFC34D"/>
</g>
<g filter="url(#filter18_i_84_1542)">
<path d="M98.4238 137.962L108.165 132.111V134.305L98.4238 140.156V137.962Z" fill="#1AD9FF"/>
</g>
<g filter="url(#filter19_i_84_1542)">
<path d="M79.5508 149.299L96.5974 139.059V141.253L79.5508 151.493L79.5508 149.299Z" fill="#1AD9FF"/>
</g>
<g filter="url(#filter20_i_84_1542)">
<path d="M69.0662 90.0855C69.6511 89.7411 69.9435 89.5688 70.2553 89.5005C70.531 89.4401 70.8165 89.4387 71.0929 89.4965C71.4053 89.5619 71.6993 89.7313 72.2874 90.0701L100.892 106.549C101.695 107.011 102.096 107.242 102.228 107.543C102.343 107.804 102.341 108.103 102.221 108.363C102.084 108.661 101.679 108.885 100.869 109.335L72.241 125.204C71.6687 125.522 71.3826 125.68 71.0798 125.742C70.8118 125.796 70.5355 125.794 70.2681 125.738C69.9659 125.674 69.6812 125.512 69.1119 125.19L41.1195 109.327C40.3287 108.879 39.9333 108.655 39.7987 108.36C39.6814 108.102 39.6789 107.806 39.792 107.546C39.9216 107.248 40.3132 107.018 41.0964 106.557L69.0662 90.0855Z" fill="url(#paint6_linear_84_1542)"/>
</g>
<defs>
<filter id="filter0_i_84_1542" x="79.5508" y="183.251" width="28.4109" height="18.8223" filterUnits="userSpaceOnUse" color-interpolation-filters="sRGB">
<feFlood flood-opacity="0" result="BackgroundImageFix"/>
<feBlend mode="normal" in="SourceGraphic" in2="BackgroundImageFix" result="shape"/>
<feColorMatrix in="SourceAlpha" type="matrix" values="0 0 0 0 0 0 0 0 0 0 0 0 0 0 0 0 0 0 127 0" result="hardAlpha"/>
<feOffset dy="-1"/>
<feComposite in2="hardAlpha" operator="arithmetic" k2="-1" k3="1"/>
<feColorMatrix type="matrix" values="0 0 0 0 0 0 0 0 0 0 0 0 0 0 0 0 0 0 0.5 0"/>
<feBlend mode="normal" in2="shape" result="effect1_innerShadow_84_1542"/>
</filter>
<filter id="filter1_i_84_1542" x="120.747" y="144.864" width="3.07568" height="5.39209" filterUnits="userSpaceOnUse" color-interpolation-filters="sRGB">
<feFlood flood-opacity="0" result="BackgroundImageFix"/>
<feBlend mode="normal" in="SourceGraphic" in2="BackgroundImageFix" result="shape"/>
<feColorMatrix in="SourceAlpha" type="matrix" values="0 0 0 0 0 0 0 0 0 0 0 0 0 0 0 0 0 0 127 0" result="hardAlpha"/>
<feOffset dx="-1" dy="-1"/>
<feComposite in2="hardAlpha" operator="arithmetic" k2="-1" k3="1"/>
<feColorMatrix type="matrix" values="0 0 0 0 0 0 0 0 0 0 0 0 0 0 0 0 0 0 0.5 0"/>
<feBlend mode="normal" in2="shape" result="effect1_innerShadow_84_1542"/>
</filter>
<filter id="filter2_i_84_1542" x="120.747" y="137.406" width="3.07568" height="5.39209" filterUnits="userSpaceOnUse" color-interpolation-filters="sRGB">
<feFlood flood-opacity="0" result="BackgroundImageFix"/>
<feBlend mode="normal" in="SourceGraphic" in2="BackgroundImageFix" result="shape"/>
<feColorMatrix in="SourceAlpha" type="matrix" values="0 0 0 0 0 0 0 0 0 0 0 0 0 0 0 0 0 0 127 0" result="hardAlpha"/>
<feOffset dx="-1" dy="-1"/>
<feComposite in2="hardAlpha" operator="arithmetic" k2="-1" k3="1"/>
<feColorMatrix type="matrix" values="0 0 0 0 0 0 0 0 0 0 0 0 0 0 0 0 0 0 0.5 0"/>
<feBlend mode="normal" in2="shape" result="effect1_innerShadow_84_1542"/>
</filter>
<filter id="filter3_i_84_1542" x="120.747" y="129.948" width="3.07568" height="5.39185" filterUnits="userSpaceOnUse" color-interpolation-filters="sRGB">
<feFlood flood-opacity="0" result="BackgroundImageFix"/>
<feBlend mode="normal" in="SourceGraphic" in2="BackgroundImageFix" result="shape"/>
<feColorMatrix in="SourceAlpha" type="matrix" values="0 0 0 0 0 0 0 0 0 0 0 0 0 0 0 0 0 0 127 0" result="hardAlpha"/>
<feOffset dx="-1" dy="-1"/>
<feComposite in2="hardAlpha" operator="arithmetic" k2="-1" k3="1"/>
<feColorMatrix type="matrix" values="0 0 0 0 0 0 0 0 0 0 0 0 0 0 0 0 0 0 0.5 0"/>
<feBlend mode="normal" in2="shape" result="effect1_innerShadow_84_1542"/>
</filter>
<filter id="filter4_i_84_1542" x="120.747" y="122.49" width="3.07568" height="5.39209" filterUnits="userSpaceOnUse" color-interpolation-filters="sRGB">
<feFlood flood-opacity="0" result="BackgroundImageFix"/>
<feBlend mode="normal" in="SourceGraphic" in2="BackgroundImageFix" result="shape"/>
<feColorMatrix in="SourceAlpha" type="matrix" values="0 0 0 0 0 0 0 0 0 0 0 0 0 0 0 0 0 0 127 0" result="hardAlpha"/>
<feOffset dx="-1" dy="-1"/>
<feComposite in2="hardAlpha" operator="arithmetic" k2="-1" k3="1"/>
<feColorMatrix type="matrix" values="0 0 0 0 0 0 0 0 0 0 0 0 0 0 0 0 0 0 0.5 0"/>
<feBlend mode="normal" in2="shape" result="effect1_innerShadow_84_1542"/>
</filter>
<filter id="filter5_i_84_1542" x="91.1182" y="150.396" width="15.8289" height="11.7019" filterUnits="userSpaceOnUse" color-interpolation-filters="sRGB">
<feFlood flood-opacity="0" result="BackgroundImageFix"/>
<feBlend mode="normal" in="SourceGraphic" in2="BackgroundImageFix" result="shape"/>
<feColorMatrix in="SourceAlpha" type="matrix" values="0 0 0 0 0 0 0 0 0 0 0 0 0 0 0 0 0 0 127 0" result="hardAlpha"/>
<feOffset dy="-1"/>
<feComposite in2="hardAlpha" operator="arithmetic" k2="-1" k3="1"/>
<feColorMatrix type="matrix" values="0 0 0 0 0 0 0 0 0 0 0 0 0 0 0 0 0 0 0.5 0"/>
<feBlend mode="normal" in2="shape" result="effect1_innerShadow_84_1542"/>
</filter>
<filter id="filter6_i_84_1542" x="86.8564" y="161" width="2.4353" height="3.65674" filterUnits="userSpaceOnUse" color-interpolation-filters="sRGB">
<feFlood flood-opacity="0" result="BackgroundImageFix"/>
<feBlend mode="normal" in="SourceGraphic" in2="BackgroundImageFix" result="shape"/>
<feColorMatrix in="SourceAlpha" type="matrix" values="0 0 0 0 0 0 0 0 0 0 0 0 0 0 0 0 0 0 127 0" result="hardAlpha"/>
<feOffset dy="-1"/>
<feComposite in2="hardAlpha" operator="arithmetic" k2="-1" k3="1"/>
<feColorMatrix type="matrix" values="0 0 0 0 0 0 0 0 0 0 0 0 0 0 0 0 0 0 0.5 0"/>
<feBlend mode="normal" in2="shape" result="effect1_innerShadow_84_1542"/>
</filter>
<filter id="filter7_i_84_1542" x="79.5508" y="163.56" width="5.47925" height="5.48535" filterUnits="userSpaceOnUse" color-interpolation-filters="sRGB">
<feFlood flood-opacity="0" result="BackgroundImageFix"/>
<feBlend mode="normal" in="SourceGraphic" in2="BackgroundImageFix" result="shape"/>
<feColorMatrix in="SourceAlpha" type="matrix" values="0 0 0 0 0 0 0 0 0 0 0 0 0 0 0 0 0 0 127 0" result="hardAlpha"/>
<feOffset dy="-1"/>
<feComposite in2="hardAlpha" operator="arithmetic" k2="-1" k3="1"/>
<feColorMatrix type="matrix" values="0 0 0 0 0 0 0 0 0 0 0 0 0 0 0 0 0 0 0.5 0"/>
<feBlend mode="normal" in2="shape" result="effect1_innerShadow_84_1542"/>
</filter>
<filter id="filter8_i_84_1542" x="96.5974" y="141.985" width="17.0466" height="12.4333" filterUnits="userSpaceOnUse" color-interpolation-filters="sRGB">
<feFlood flood-opacity="0" result="BackgroundImageFix"/>
<feBlend mode="normal" in="SourceGraphic" in2="BackgroundImageFix" result="shape"/>
<feColorMatrix in="SourceAlpha" type="matrix" values="0 0 0 0 0 0 0 0 0 0 0 0 0 0 0 0 0 0 127 0" result="hardAlpha"/>
<feOffset dy="-1"/>
<feComposite in2="hardAlpha" operator="arithmetic" k2="-1" k3="1"/>
<feColorMatrix type="matrix" values="0 0 0 0 0 0 0 0 0 0 0 0 0 0 0 0 0 0 0.5 0"/>
<feBlend mode="normal" in2="shape" result="effect1_innerShadow_84_1542"/>
</filter>
<filter id="filter9_i_84_1542" x="92.3357" y="153.321" width="2.4353" height="3.65698" filterUnits="userSpaceOnUse" color-interpolation-filters="sRGB">
<feFlood flood-opacity="0" result="BackgroundImageFix"/>
<feBlend mode="normal" in="SourceGraphic" in2="BackgroundImageFix" result="shape"/>
<feColorMatrix in="SourceAlpha" type="matrix" values="0 0 0 0 0 0 0 0 0 0 0 0 0 0 0 0 0 0 127 0" result="hardAlpha"/>
<feOffset dy="-1"/>
<feComposite in2="hardAlpha" operator="arithmetic" k2="-1" k3="1"/>
<feColorMatrix type="matrix" values="0 0 0 0 0 0 0 0 0 0 0 0 0 0 0 0 0 0 0.5 0"/>
<feBlend mode="normal" in2="shape" result="effect1_innerShadow_84_1542"/>
</filter>
<filter id="filter10_i_84_1542" x="88.074" y="155.881" width="2.4353" height="3.65674" filterUnits="userSpaceOnUse" color-interpolation-filters="sRGB">
<feFlood flood-opacity="0" result="BackgroundImageFix"/>
<feBlend mode="normal" in="SourceGraphic" in2="BackgroundImageFix" result="shape"/>
<feColorMatrix in="SourceAlpha" type="matrix" values="0 0 0 0 0 0 0 0 0 0 0 0 0 0 0 0 0 0 127 0" result="hardAlpha"/>
<feOffset dy="-1"/>
<feComposite in2="hardAlpha" operator="arithmetic" k2="-1" k3="1"/>
<feColorMatrix type="matrix" values="0 0 0 0 0 0 0 0 0 0 0 0 0 0 0 0 0 0 0.5 0"/>
<feBlend mode="normal" in2="shape" result="effect1_innerShadow_84_1542"/>
</filter>
<filter id="filter11_i_84_1542" x="83.8125" y="158.441" width="2.4353" height="3.65698" filterUnits="userSpaceOnUse" color-interpolation-filters="sRGB">
<feFlood flood-opacity="0" result="BackgroundImageFix"/>
<feBlend mode="normal" in="SourceGraphic" in2="BackgroundImageFix" result="shape"/>
<feColorMatrix in="SourceAlpha" type="matrix" values="0 0 0 0 0 0 0 0 0 0 0 0 0 0 0 0 0 0 127 0" result="hardAlpha"/>
<feOffset dy="-1"/>
<feComposite in2="hardAlpha" operator="arithmetic" k2="-1" k3="1"/>
<feColorMatrix type="matrix" values="0 0 0 0 0 0 0 0 0 0 0 0 0 0 0 0 0 0 0.5 0"/>
<feBlend mode="normal" in2="shape" result="effect1_innerShadow_84_1542"/>
</filter>
<filter id="filter12_i_84_1542" x="79.5508" y="161" width="2.4353" height="3.65674" filterUnits="userSpaceOnUse" color-interpolation-filters="sRGB">
<feFlood flood-opacity="0" result="BackgroundImageFix"/>
<feBlend mode="normal" in="SourceGraphic" in2="BackgroundImageFix" result="shape"/>
<feColorMatrix in="SourceAlpha" type="matrix" values="0 0 0 0 0 0 0 0 0 0 0 0 0 0 0 0 0 0 127 0" result="hardAlpha"/>
<feOffset dy="-1"/>
<feComposite in2="hardAlpha" operator="arithmetic" k2="-1" k3="1"/>
<feColorMatrix type="matrix" values="0 0 0 0 0 0 0 0 0 0 0 0 0 0 0 0 0 0 0.5 0"/>
<feBlend mode="normal" in2="shape" result="effect1_innerShadow_84_1542"/>
</filter>
<filter id="filter13_i_84_1542" x="95.3796" y="140.156" width="14.0024" height="10.605" filterUnits="userSpaceOnUse" color-interpolation-filters="sRGB">
<feFlood flood-opacity="0" result="BackgroundImageFix"/>
<feBlend mode="normal" in="SourceGraphic" in2="BackgroundImageFix" result="shape"/>
<feColorMatrix in="SourceAlpha" type="matrix" values="0 0 0 0 0 0 0 0 0 0 0 0 0 0 0 0 0 0 127 0" result="hardAlpha"/>
<feOffset dy="-1"/>
<feComposite in2="hardAlpha" operator="arithmetic" k2="-1" k3="1"/>
<feColorMatrix type="matrix" values="0 0 0 0 0 0 0 0 0 0 0 0 0 0 0 0 0 0 0.5 0"/>
<feBlend mode="normal" in2="shape" result="effect1_innerShadow_84_1542"/>
</filter>
<filter id="filter14_i_84_1542" x="79.5508" y="149.664" width="14.0024" height="10.605" filterUnits="userSpaceOnUse" color-interpolation-filters="sRGB">
<feFlood flood-opacity="0" result="BackgroundImageFix"/>
<feBlend mode="normal" in="SourceGraphic" in2="BackgroundImageFix" result="shape"/>
<feColorMatrix in="SourceAlpha" type="matrix" values="0 0 0 0 0 0 0 0 0 0 0 0 0 0 0 0 0 0 127 0" result="hardAlpha"/>
<feOffset dy="-1"/>
<feComposite in2="hardAlpha" operator="arithmetic" k2="-1" k3="1"/>
<feColorMatrix type="matrix" values="0 0 0 0 0 0 0 0 0 0 0 0 0 0 0 0 0 0 0.5 0"/>
<feBlend mode="normal" in2="shape" result="effect1_innerShadow_84_1542"/>
</filter>
<filter id="filter15_i_84_1542" x="106.947" y="133.208" width="6.69678" height="6.21655" filterUnits="userSpaceOnUse" color-interpolation-filters="sRGB">
<feFlood flood-opacity="0" result="BackgroundImageFix"/>
<feBlend mode="normal" in="SourceGraphic" in2="BackgroundImageFix" result="shape"/>
<feColorMatrix in="SourceAlpha" type="matrix" values="0 0 0 0 0 0 0 0 0 0 0 0 0 0 0 0 0 0 127 0" result="hardAlpha"/>
<feOffset dy="-1"/>
<feComposite in2="hardAlpha" operator="arithmetic" k2="-1" k3="1"/>
<feColorMatrix type="matrix" values="0 0 0 0 0 0 0 0 0 0 0 0 0 0 0 0 0 0 0.5 0"/>
<feBlend mode="normal" in2="shape" result="effect1_innerShadow_84_1542"/>
</filter>
<filter id="filter16_i_84_1542" x="88.6829" y="138.328" width="16.4377" height="12.0676" filterUnits="userSpaceOnUse" color-interpolation-filters="sRGB">
<feFlood flood-opacity="0" result="BackgroundImageFix"/>
<feBlend mode="normal" in="SourceGraphic" in2="BackgroundImageFix" result="shape"/>
<feColorMatrix in="SourceAlpha" type="matrix" values="0 0 0 0 0 0 0 0 0 0 0 0 0 0 0 0 0 0 127 0" result="hardAlpha"/>
<feOffset dy="-1"/>
<feComposite in2="hardAlpha" operator="arithmetic" k2="-1" k3="1"/>
<feColorMatrix type="matrix" values="0 0 0 0 0 0 0 0 0 0 0 0 0 0 0 0 0 0 0.5 0"/>
<feBlend mode="normal" in2="shape" result="effect1_innerShadow_84_1542"/>
</filter>
<filter id="filter17_i_84_1542" x="79.5508" y="149.299" width="7.30566" height="6.58228" filterUnits="userSpaceOnUse" color-interpolation-filters="sRGB">
<feFlood flood-opacity="0" result="BackgroundImageFix"/>
<feBlend mode="normal" in="SourceGraphic" in2="BackgroundImageFix" result="shape"/>
<feColorMatrix in="SourceAlpha" type="matrix" values="0 0 0 0 0 0 0 0 0 0 0 0 0 0 0 0 0 0 127 0" result="hardAlpha"/>
<feOffset dy="-1"/>
<feComposite in2="hardAlpha" operator="arithmetic" k2="-1" k3="1"/>
<feColorMatrix type="matrix" values="0 0 0 0 0 0 0 0 0 0 0 0 0 0 0 0 0 0 0.5 0"/>
<feBlend mode="normal" in2="shape" result="effect1_innerShadow_84_1542"/>
</filter>
<filter id="filter18_i_84_1542" x="98.4238" y="132.111" width="9.74097" height="8.04517" filterUnits="userSpaceOnUse" color-interpolation-filters="sRGB">
<feFlood flood-opacity="0" result="BackgroundImageFix"/>
<feBlend mode="normal" in="SourceGraphic" in2="BackgroundImageFix" result="shape"/>
<feColorMatrix in="SourceAlpha" type="matrix" values="0 0 0 0 0 0 0 0 0 0 0 0 0 0 0 0 0 0 127 0" result="hardAlpha"/>
<feOffset dy="-1"/>
<feComposite in2="hardAlpha" operator="arithmetic" k2="-1" k3="1"/>
<feColorMatrix type="matrix" values="0 0 0 0 0 0 0 0 0 0 0 0 0 0 0 0 0 0 0.5 0"/>
<feBlend mode="normal" in2="shape" result="effect1_innerShadow_84_1542"/>
</filter>
<filter id="filter19_i_84_1542" x="79.5508" y="139.059" width="17.0466" height="12.4333" filterUnits="userSpaceOnUse" color-interpolation-filters="sRGB">
<feFlood flood-opacity="0" result="BackgroundImageFix"/>
<feBlend mode="normal" in="SourceGraphic" in2="BackgroundImageFix" result="shape"/>
<feColorMatrix in="SourceAlpha" type="matrix" values="0 0 0 0 0 0 0 0 0 0 0 0 0 0 0 0 0 0 127 0" result="hardAlpha"/>
<feOffset dy="-1"/>
<feComposite in2="hardAlpha" operator="arithmetic" k2="-1" k3="1"/>
<feColorMatrix type="matrix" values="0 0 0 0 0 0 0 0 0 0 0 0 0 0 0 0 0 0 0.5 0"/>
<feBlend mode="normal" in2="shape" result="effect1_innerShadow_84_1542"/>
</filter>
<filter id="filter20_i_84_1542" x="39.709" y="89.4541" width="62.6038" height="36.3271" filterUnits="userSpaceOnUse" color-interpolation-filters="sRGB">
<feFlood flood-opacity="0" result="BackgroundImageFix"/>
<feBlend mode="normal" in="SourceGraphic" in2="BackgroundImageFix" result="shape"/>
<feColorMatrix in="SourceAlpha" type="matrix" values="0 0 0 0 0 0 0 0 0 0 0 0 0 0 0 0 0 0 127 0" result="hardAlpha"/>
<feOffset dy="8"/>
<feComposite in2="hardAlpha" operator="arithmetic" k2="-1" k3="1"/>
<feColorMatrix type="matrix" values="0 0 0 0 0 0 0 0 0 0.666667 0 0 0 0 1 0 0 0 0.5 0"/>
<feBlend mode="normal" in2="shape" result="effect1_innerShadow_84_1542"/>
</filter>
<linearGradient id="paint0_linear_84_1542" x1="12.7849" y1="147.382" x2="102.826" y2="207.767" gradientUnits="userSpaceOnUse">
<stop stop-color="#365FB3"/>
<stop offset="0.455241" stop-color="#471F99"/>
<stop offset="0.934602" stop-color="#5E1980"/>
</linearGradient>
<linearGradient id="paint1_linear_84_1542" x1="12.7851" y1="147.027" x2="129.27" y2="172.242" gradientUnits="userSpaceOnUse">
<stop stop-color="#5C8AE6"/>
<stop offset="0.847952" stop-color="#661F66"/>
</linearGradient>
<linearGradient id="paint2_linear_84_1542" x1="65.3455" y1="176.148" x2="76.7099" y2="176.148" gradientUnits="userSpaceOnUse">
<stop stop-opacity="0"/>
<stop offset="0.499559" stop-opacity="0.1"/>
<stop offset="1" stop-opacity="0"/>
</linearGradient>
<linearGradient id="paint3_linear_84_1542" x1="13.8505" y1="107.252" x2="109.21" y2="64.2961" gradientUnits="userSpaceOnUse">
<stop stop-color="#527ACC"/>
<stop offset="1" stop-color="#7A3D99"/>
</linearGradient>
<linearGradient id="paint4_linear_84_1542" x1="13.8957" y1="140.536" x2="40.0192" y2="49.5521" gradientUnits="userSpaceOnUse">
<stop stop-color="#66CCFF"/>
<stop offset="1" stop-color="#991F99"/>
</linearGradient>
<linearGradient id="paint5_linear_84_1542" x1="34.9942" y1="107.373" x2="95.3739" y2="80.5441" gradientUnits="userSpaceOnUse">
<stop stop-color="#334466"/>
<stop offset="1" stop-color="#3D1F4D"/>
</linearGradient>
<linearGradient id="paint6_linear_84_1542" x1="71.0275" y1="89.1396" x2="71.0275" y2="126.074" gradientUnits="userSpaceOnUse">
<stop stop-color="#99DDFF"/>
<stop offset="1" stop-color="#99BBFF"/>
</linearGradient>
</defs>
</svg>
