<svg width="32" height="32" viewBox="0 0 32 32" fill="none" xmlns="http://www.w3.org/2000/svg">
<rect width="32" height="32" rx="16" fill="#F7931A"/>
<g clip-path="url(#clip0_77_1477)">
<path d="M27.6397 18.9029C26.0371 25.3315 19.5259 29.2438 13.0965 27.6407C6.6698 26.038 2.75746 19.5265 4.36085 13.0984C5.96283 6.66903 12.474 2.75639 18.9014 4.35908C25.3303 5.96177 29.2424 12.474 27.6396 18.903L27.6397 18.9029H27.6397Z" fill="#F7931A"/>
<path d="M21.2915 14.2903C21.5304 12.6934 20.3146 11.835 18.6521 11.2623L19.1914 9.09914L17.8746 8.77103L17.3496 10.8773C17.0034 10.7909 16.6479 10.7096 16.2945 10.6289L16.8234 8.50878L15.5074 8.18066L14.9678 10.3432C14.6813 10.2779 14.3999 10.2135 14.127 10.1455L14.1285 10.1387L12.3126 9.68528L11.9623 11.0917C11.9623 11.0917 12.9392 11.3157 12.9187 11.3294C13.4519 11.4625 13.5483 11.8155 13.5323 12.0953L12.918 14.5597C12.9547 14.569 13.0023 14.5825 13.0549 14.6036C13.0109 14.5927 12.9642 14.5808 12.9157 14.5692L12.0546 18.0214C11.9894 18.1834 11.824 18.4266 11.4512 18.3342C11.4644 18.3534 10.4941 18.0954 10.4941 18.0954L9.84033 19.6027L11.5539 20.0299C11.8727 20.1098 12.1851 20.1935 12.4928 20.2721L11.9479 22.4601L13.2631 22.7883L13.8028 20.6235C14.1621 20.721 14.5108 20.811 14.8522 20.8958L14.3144 23.0504L15.6312 23.3785L16.1761 21.1946C18.4215 21.6196 20.1099 21.4482 20.8205 19.4172C21.3932 17.7821 20.792 16.8389 19.6107 16.2238C20.4711 16.0254 21.1192 15.4595 21.292 14.2905L21.2916 14.2902L21.2915 14.2903ZM18.2829 18.5091C17.876 20.1443 15.1229 19.2604 14.2302 19.0387L14.9533 16.14C15.8459 16.3628 18.7083 16.8038 18.283 18.5091H18.2829ZM18.6902 14.2666C18.319 15.754 16.0275 14.9984 15.2842 14.8131L15.9397 12.1841C16.6831 12.3694 19.0769 12.7152 18.6903 14.2666H18.6902Z" fill="white"/>
</g>
<defs>
<clipPath id="clip0_77_1477">
<rect width="24" height="24" fill="white" transform="translate(4 4)"/>
</clipPath>
</defs>
</svg>
